<?xml version="1.0" standalone="no"?>
<!DOCTYPE svg PUBLIC "-//W3C//DTD SVG 20010904//EN"
 "http://www.w3.org/TR/2001/REC-SVG-20010904/DTD/svg10.dtd">
<svg version="1.0" xmlns="http://www.w3.org/2000/svg"
 width="500.000000pt" height="500.000000pt" viewBox="0 0 500.000000 500.000000"
 preserveAspectRatio="xMidYMid meet">

<g transform="translate(0.000000,500.000000) scale(0.100000,-0.100000)"
fill="#000000" stroke="none">
<path d="M832 4041 c-35 -5 -68 -13 -73 -18 -18 -18 -38 -165 -39 -278 0 -265
81 -486 245 -663 l58 -63 -32 -37 c-70 -82 -197 -285 -261 -417 -141 -286
-206 -544 -226 -884 l-7 -123 74 6 c41 4 108 12 149 18 103 15 339 15 430 -1
229 -38 396 -124 670 -342 247 -196 364 -252 582 -280 78 -10 117 -10 200 1
201 25 330 84 530 242 360 285 516 360 812 389 111 10 165 8 444 -22 57 -6
106 -8 109 -6 11 12 -20 352 -43 467 -54 271 -177 565 -330 790 -46 69 -99
142 -116 162 l-31 38 49 52 c117 125 180 242 231 428 13 50 17 104 18 235 0
204 -13 281 -52 296 -14 5 -94 12 -177 16 -424 17 -822 -105 -1131 -347 l-60
-47 -90 13 c-115 16 -414 16 -529 0 l-89 -13 -89 68 c-205 153 -437 252 -708
300 -126 23 -408 33 -518 20z m156 -161 c240 -51 457 -150 627 -285 39 -31 70
-60 70 -65 0 -4 -31 -24 -69 -44 l-68 -36 -79 74 c-161 151 -398 225 -598 187
l-44 -9 7 67 c10 113 16 131 40 131 13 0 64 -9 114 -20z m3166 -12 c3 -18 8
-63 12 -99 l7 -67 -44 9 c-116 22 -282 1 -395 -51 -85 -38 -147 -82 -219 -151
l-60 -59 -70 35 c-39 20 -70 40 -70 45 0 5 32 34 70 65 168 134 393 237 625
285 128 27 137 26 144 -12z m-1429 -303 c582 -87 1056 -443 1320 -990 108
-224 195 -539 195 -709 l0 -44 -107 -1 c-60 -1 -122 -4 -139 -7 l-31 -6 -28
119 c-111 471 -328 798 -590 888 -66 23 -178 30 -244 16 -185 -39 -339 -201
-397 -416 -14 -52 -19 -104 -19 -200 0 -181 4 -195 62 -219 74 -31 188 -112
243 -174 28 -31 69 -93 91 -137 43 -87 77 -224 65 -265 -7 -26 -112 -120 -223
-202 -131 -96 -247 -132 -423 -132 -223 0 -339 51 -567 248 -94 82 -97 90 -63
220 49 194 198 365 384 442 42 17 45 21 55 73 16 78 14 219 -5 309 -45 222
-208 408 -395 451 -222 51 -455 -75 -621 -335 -85 -133 -189 -401 -233 -602
l-19 -84 -30 6 c-17 3 -80 6 -140 7 l-109 2 6 81 c12 167 68 384 149 576 221
527 652 913 1163 1044 216 56 452 71 650 41z m-764 -1065 c103 -29 138 -159
63 -233 -56 -57 -141 -57 -197 -1 -87 87 -35 221 93 243 3 1 21 -4 41 -9z
m1151 0 c43 -12 93 -66 103 -109 14 -65 -44 -150 -114 -166 -65 -14 -150 44
-166 114 -16 74 49 156 135 170 3 1 22 -4 42 -9z"/>
<path d="M2360 3459 c-110 -9 -254 -41 -355 -76 -80 -29 -245 -111 -245 -123
0 -4 15 -10 34 -13 55 -9 166 -56 256 -110 58 -35 117 -83 186 -151 103 -103
156 -176 222 -303 20 -40 39 -73 42 -73 3 0 25 39 49 86 120 234 328 429 555
519 38 14 84 29 102 32 19 3 34 9 34 13 0 11 -147 86 -227 116 -105 40 -257
72 -388 84 -132 11 -129 11 -265 -1z"/>
<path d="M2378 1661 c-74 -24 -116 -51 -170 -109 -80 -85 -80 -81 3 -179 79
-92 116 -120 193 -146 63 -21 129 -22 192 0 86 29 118 56 252 216 14 15 12 22
-18 65 -43 62 -112 117 -180 144 -78 29 -198 34 -272 9z"/>
</g>
</svg>
